<?xml version="1.0" encoding="UTF-8"?>
<svg width="1200pt" height="1200pt" version="1.1" viewBox="0 0 1200 1200" xmlns="http://www.w3.org/2000/svg">
 <g fill="#6a794b">
  <path d="m607.36 1186c-3.4727 2.332-4.4844-0.5625-6.5391-2.457-1.3086 4.5273-4.0547 6.1602-8.4102 4.168 0-12.016-0.99609-24.078 0.21484-35.914 2.3125-22.617-2.3555-44.656-4.0625-66.918-2.4531-31.953-6.1992-63.809-8.5273-95.77-6.5078-89.285-7.9102-178.68-4.7305-268.15 0.68359-19.258 1.6992-38.508 2.5664-57.867-37.883-14.973-57.184-47.055-74.898-80.516-9.9805-18.855-17.27-38.859-23.676-59.492 1.7812 2.2656 3.5859 4.5156 5.3477 6.8008 11.363 14.738 24.352 27.75 39.434 38.789 38.883 28.445 40.738 31.062 57.699 74.898 2.2539-7.8398 4.0703-14.867 6.2891-21.766 8.3672-26.027 23.965-47.211 44.297-65.086 16.426-14.441 33.035-28.668 49.535-42.965 0.125 12.871-15.887 56.59-30.133 82.215-14.688 26.422-27.715 40.539-59.191 64.16-9.5938 141.01-3.9453 281.73 8.8242 422.48 17.125-92.402 41.797-182.71 76.113-270.33-25.57-29.996-28.352-65.973-28.363-102.57-0.003906-16.688 2.0039-33.281 4.3516-49.805 0.21484-1.5078 0.19922-3.1875 2.3281-4.293 3.8711 26.707 13.688 51.121 26.812 74.352 12.617 22.336 15.371 46.148 9.4102 71.781 4.7383-2.2617 6.4688-6.2344 9.1719-9.1367 18.43-19.781 40.625-33.156 66.844-39.785 20.574-5.1992 41.223-10.098 61.891-15.629-38.516 41.555-78.812 79.887-140.86 83.305-10.078 25.293-19.34 51.801-27.832 78.562-21.824 68.793-38.695 138.81-51.422 209.85-3.6523 20.379-5.6797 40.699-2.4922 61.363 0.80078 5.2305 1.6992 10.758 0.011719 15.723z"/>
  <path d="m573.72 1189c-2.168 1.6289-4.0312 2.957-7.0156 2.0312-20.746-125.11-45.461-249.42-89.949-368.81-28.223 0.64844-54.285-9.957-77.781-24.828-24.551-15.539-48.41-33.676-67.895-55.324 2.4258-1.793 15.164 5.8086 18.555 7.1367 7.082 2.7812 14.328 5.125 21.656 7.1641 13.836 3.8477 28.059 5.7383 41.938 9.293 26.238 6.7227 42.453 22.199 61.684 39.879-7.6484-27.43-10.555-53.367-3.7266-81.328 6.7539-27.66 18.457-53.965 26.004-81.441 16.488 48.523 23.973 129.63-8.168 171.64 44.84 120.8 71.746 245.82 84.699 374.59z"/>
  <path d="m679.2 425.96c-2.6055 19.191-3.2227 39.973-9.4102 58.426-5.8125 17.344-17.488 29.719-30.707 41.801-13.168 12.035-26.879 22.691-37.133 37.512-9.9531 14.383-16.793 30.652-21.727 47.375-7.2812-34.961-42.117-47.785-63.844-72.102-11.113-12.438-19.848-26.789-26.793-41.914-7.0078-15.258-15.449-33.824-16.633-50.688 29.422 38.293 97.266 53.859 104.36 107.58 7.5508-28.289 13.625-55.371 32.52-78.703 18.422-22.742 45.434-33.598 69.363-49.285z"/>
  <path d="m587.84 319.87c-2.9922-19.055-4.7969-45.855-18.23-60.863-6.4141-7.168-15.281-12.133-22.5-18.477-7.6133-6.6953-14.648-14.082-20.566-22.324-12.676-17.656-19.098-38.602-19.453-60.289-0.37109-22.535 3.9492-51.059 16.32-70.375 3.6562 17.621 6.0039 36.422 11.832 53.469 5.7695 16.875 17 29.844 25.863 45.023 8.7227 14.938 15.477 30.922 20.863 47.34 4.7773 14.559 6.3047 31.57 12.492 45.445 6.7695-30.602 14.449-58.395 32.922-84.312 16.797-23.562 36.98-43.797 41.809-73.625 6.1445 36.145 3.9414 74.695-11.184 108.46-16.266 36.312-51.043 56.262-70.168 90.531z"/>
  <path d="m496.51 211.61c21.332 23.293 47.637 42.77 65.203 69.309 16.184 24.453 21.824 51.594 25.992 80.117 5.1094-14.879 9.5781-29.727 18.004-43.172 8.3164-13.273 19.25-22.438 31.105-32.324 11.824-9.8633 21.91-21.598 30.484-34.363 3.9531-5.8828 7.5781-11.98 10.98-18.195 2.0625-3.7656 6.0391-16.688 10.375-17.758 0.30859 33.73-3.5625 69-21.934 98.137-9.7461 15.457-22.777 26.992-37.434 37.648-16.191 11.777-36.914 25.453-45.906 43.996-2.7656-3.0742-2.1172-7.0469-2.8047-10.785-0.8125-4.4102-2.582-8.8594-4.3945-12.938-3.1523-7.1016-7.4102-13.652-12.316-19.664-12.488-15.309-29-26.773-42.078-41.516-23.199-26.152-29.086-64.645-25.277-98.492z"/>
  <path d="m298.87 479.43c2.8008-4.2578-3.875-15.348-5.2461-19.922-1.8906-6.3086-3.4805-12.715-4.7617-19.172-2.9258-14.793-4.168-29.891-3.7461-44.965 0.84375-30.164 9.2461-59.711-2.4141-89.016 24.477 27.094 41.137 65.168 46.133 101.16 5.3906 38.816-11.895 75.09-10.32 113.92-12.953-18.758-31.332-42.328-54.574-47.922-20.914-5.0352-40.309-7.3125-59.082-18.961-16.246-10.078-29.422-24.246-39.203-40.609-5.3359-8.9258-9.6797-18.43-13.246-28.191-3.8438-10.52-9.2344-23.695-9.2344-34.918 5.3984-0.074219 13.922 13.883 17.152 17.648 5.1953 6.0547 10.457 11.98 16.449 17.281 12.875 11.387 27.664 17.566 42.695 25.438 31.379 16.434 56.543 41.605 79.398 68.223z"/>
  <path d="m287.5 677.55c42.18 21.262 108.85 5.4062 139.66 47.727-5.2188-27.102-13.121-51.906-9.5469-79.965 3.5-27.492 19.102-49.488 31.934-73.312 15.941 29.91 30.129 62.586 20.363 96.898-4.8242 16.953-12.477 32.602-15.527 50.148-3.2422 18.645-0.65234 36.016 1.3398 54.582-20.133-27.512-57.406-23.539-86.219-34.703-30.949-11.992-62.023-34.785-82-61.375z"/>
  <path d="m601.1 8.6211c21.07 32.422 38.531 72.613 34.16 112.12-2.2617 20.457-11.039 38.016-19.656 56.367-4.4648 9.5156-8.7266 19.129-12.586 28.91-3.3945 8.6094-5.5312 18.16-10.137 26.164-1.1133-19.27-10.098-36.363-19.961-52.516-11.605-19.016-20.938-35.664-20.695-58.695 0.43359-42.016 24.402-79.949 48.875-112.35z"/>
  <path d="m340.09 556.12c-3.2266-15.398-7.7109-30.32-7.6992-46.207 0.011719-15.754 5.1914-28.602 9.9062-43.309 9.0859-28.348 7.0625-57.953 4.0742-87.098 19.352 28.789 34.918 64.059 33.934 99.301-0.51172 18.285-5.6758 34.922-12.594 51.688-7.2344 17.523-12.488 35.742-16.832 54.176-24.828-31.609-64.391-30.941-98.094-46.68-30.164-14.09-50.023-39.43-62.805-69.629 31.199 10.012 65.023 17.586 93.75 33.754 11.883 6.6875 22.52 15.281 31.953 25.102 4.7188 4.9141 9.1133 10.117 13.273 15.512 2.8789 3.7344 6.4688 11.5 11.133 13.391z"/>
  <path d="m726.95 724.67c15.348-19.805 34.062-36.902 57.426-46.691 24.996-10.477 51.629-5.0742 77.031-12.664-16.141 25.855-34.078 53.117-64.148 63.852-16.316 5.8242-33.824 5.9883-50.039 12.609-16.938 6.918-31.004 18.289-42.137 32.723 8.7773-33.52-16.141-60.754-23.887-91.793-8.0039-32.078-4.5938-63.738 1.5625-95.75 9.7109 23.469 20.992 46.062 31.941 68.973 5.1328 10.742 10.469 21.555 13.273 33.191 3.0625 12.684 1.0625 23.035-1.0234 35.551z"/>
  <path d="m168.5 246.62c30.734 17.184 61.988 36.973 80.832 67.66 10.215 16.637 15.562 34.648 16.723 54.086 1.3438 22.527 4.3438 44.82 7.0938 67.223-15.828-15.812-30.738-26.289-50.504-36.594-15.012-7.8242-27.59-19.484-36.383-33.957-21.836-35.953-18.34-78.172-17.762-118.42z"/>
  <path d="m875.57 468.32c22.684-21.469 43.941-42.441 72.68-55.73 25.355-11.727 54.027-17.25 72.305-40.238-1.5859 15.41-16.734 33.852-26.035 45.703-10.711 13.645-23.434 25.711-38.027 35.133-14.871 9.6016-31.18 15.906-48.32 20.102-21.082 5.1562-40.246 13.184-57.746 26.234 3.8398-10.527 7.8164-21.016 11.527-31.59 4.0391-11.504 1.5898-17.797-3.7578-28.395-8.5312-16.914-13.586-35.758-11.652-54.785 3.6641-36.102 31.094-69.234 60.508-88.512-5.1523 14.23-11.391 28.512-14.715 43.309-3.3477 14.902-1.1484 28.398-0.27734 43.371 1.7305 29.688-6.457 57.812-16.488 85.398z"/>
  <path d="m485.59 300.29c10.984 13.473 21.109 28.586 36 38.07 12.402 7.8984 25.883 13.051 36.594 23.477 8.8984 8.6641 15.367 19.398 19.336 31.141 2.1328 6.3125 3.5547 12.855 4.4531 19.453 0.91016 6.6875-0.29688 14.801 1.9609 21.086 12.145-21.977 23.406-44.125 42.516-61.023 18.785-16.613 41.102-28.148 59.469-45.633 0.88281 15.199-4.7539 33.719-9.918 47.934-5.0312 13.844-12.324 26.805-21.824 38.078-9.1914 10.906-20.281 20.039-32.465 27.418-6.4961 3.9336-13.281 7.3672-20.254 10.367-7.6758 3.3008-16.004 5.2227-21.504 11.883 2.5703-15.52-7.8789-25.789-17.52-36.203-11.938-12.895-26.695-22.219-39.074-34.547-24.457-24.352-32.684-57.887-39.109-90.633 0.44531-0.28906 0.89062-0.57812 1.3398-0.86719z"/>
  <path d="m822.3 392.16c18.578 46.211 33.145 91.996 8.4375 140.35 0.68359 0.14453 1.3633 0.28516 2.0469 0.42969 20.266-21.887 41.148-39.41 71.27-45.156 31.758-6.0586 58.758-19.887 86.328-36.297 4.4805 5.7891-24.012 35.457-28.57 40.078-12.195 12.367-26.289 22.812-41.949 30.371-34.992 16.887-78.863 9.6094-107.7 38.738 7.1328-30.289-11.414-58.262-17.148-87.043-5.8672-29.449 9.9141-58.773 27.289-81.469z"/>
  <path d="m404.12 484.14c31.055 59.277 19.758 113.96-17.766 165.9-3.9492-3.9375-5.3477-11.867-7.1797-16.957-13.598-7.8633-28.602-12.691-43.875-16.086-15.004-3.3359-30.664-4.3906-45.008-10.188-27.922-11.285-47.145-34.906-66.535-56.828 2.8789-3.4141 16 5.3242 19.184 6.5938 6.8828 2.7461 13.953 4.9492 21.176 6.6094 15.082 3.4648 30.133 2.3398 45.227 4.668 29.781 4.5977 47.051 28.383 65.449 49.566-2.4062-22.527-4.4922-45.109 2.1211-67.18 3.375-11.266 9.4883-21.07 14.457-31.637 5.2148-11.102 9.4023-22.668 12.75-34.461z"/>
  <path d="m125.95 764.03c3.4766-1.75 6.1523-0.60938 8.9375 0.070312 72.707 17.762 136.43 52.789 193.64 100.45 66.992 55.805 116.21 125.45 157.15 201.52 15.914 29.562 30.59 59.75 42.984 90.992 0.91406 2.3086 1.6914 4.6758 1.9688 7.2305-8.2773-16.426-16.52-32.785-25.242-48.914-68.91-127.43-166.57-226.77-291.73-299.37-26.332-15.273-53.121-29.691-80.082-43.801-3.2109-1.6836-7.4414-2.8203-7.6328-8.1758z"/>
  <path d="m1015.1 261.2c0.75391 50.199-10.367 93.91-52.508 124.35-19.777 14.285-41.434 25.926-60.121 42.5 7.418-20.961 2.8398-42.387 4.332-63.43 1.4492-20.414 10.891-37.289 24.43-52.02 22.629-24.617 51.566-39.047 83.867-51.402z"/>
  <path d="m724.41 516.59c2.1836 11.047 4.0039 22.23 6.7422 33.156 2.8867 11.516 9.1133 19.898 15.086 29.91 11.586 19.43 18.621 41.109 17.02 63.926 20.617-14.418 40.617-28.598 65.066-35.77 11.43-3.3516 23.23-5.2578 35.129-5.7617 14.055-0.59375 27.324-3.5508 41.234-5.2031-33.984 50.152-84.723 69.469-141.95 55.316-3.3711 13.32-9.6445 25.492-16.754 38.211-11.941-27.605-27.578-55.762-32.949-85.594-5.3086-29.461 1.1211-60.492 11.375-88.191z"/>
  <path d="m953.39 524.23c-18.102 28.375-43.34 51.93-76.102 61.723-18.758 5.6055-38.734 6.1875-57.938 9.6875-8.8398 1.6094-22.324 1.8086-28.789 8.6719-5.9844 6.3516-10.113 16.535-14.582 24.035-1.7188-14.027-3.0078-27.98-7.1953-41.559-4.457-14.457-12.23-27.395-15.27-42.348-5.7617-28.34 0.1875-62.617 16.473-86.738 2.3828 11.785 3.9219 24.227 7.707 35.652 3.7578 11.344 12.004 20.027 16.816 30.863 9.793 22.039 6.5508 43.48 1.043 66.035 5.7617-2.6641 10.816-10.035 15.754-14.219 5.4453-4.6133 11.262-8.7773 17.414-12.402 11.777-6.9375 24.66-11.801 37.992-14.75 14.844-3.2852 29.973-3.7656 44.652-8.0234 14.562-4.2188 28.141-10.676 42.023-16.629z"/>
  <path d="m1074.1 825.16c-74.809 5.832-148 26.289-211.18 67.578-60.852 39.766-109.66 96.211-150.29 155.93-24.023 35.312-44.191 72.59-63.043 110.86-4.2695-4.0352 16.996-41.453 19.848-47.348 8.5-17.57 17.527-34.887 27.145-51.871 19.492-34.426 41.414-67.496 65.988-98.508 46.371-58.52 101.77-110.39 175.12-131.5 22.957-6.6055 46.738-10.219 70.613-10.938 21.391-0.64062 45.281-0.78516 65.797 5.8047z"/>
  <path d="m579.91 516.21c-23.852-22.891-53.945-39.719-74.25-66.215-18.23-23.793-26.605-52.938-34.316-81.426 10.527 11.414 19.977 22.574 32.91 31.516 13.574 9.3828 28.32 16.145 40.699 27.297 24.871 22.395 40.477 55.043 34.957 88.828z"/>
  <path d="m248.09 611.77c15.355 5.9727 31.062 13.656 47.703 14.898 17.477 1.3047 33.137 0.78906 50.172 6.0898 30.902 9.6133 52.449 27.715 63.711 58.238-29.785-8.207-61.508-9.9844-90.027-22.559-27.699-12.219-51.695-34.242-71.559-56.668z"/>
 </g>
</svg>
