<?xml version="1.0" encoding="UTF-8"?>
<svg width="1200pt" height="1200pt" version="1.1" viewBox="0 0 1200 1200" xmlns="http://www.w3.org/2000/svg">
 <g fill="#6a794b">
  <path d="m512.2 509.23 165.82-76.711-127.83-276.43-186.76 86.383v0.003906l-255.46 118.17 127.84 276.43zm25.949-320.36 107.1 231.6-141.92 65.652-107.12-231.6zm-165.84 76.711 107.12 231.6-231.56 107.11-107.11-231.6z"/>
  <path d="m240.55 960.91c0 7.9023-6.4062 14.309-14.309 14.309-7.9023 0-14.309-6.4062-14.309-14.309 0-7.8984 6.4062-14.305 14.309-14.305 7.9023 0 14.309 6.4062 14.309 14.305"/>
  <path d="m283.46 917.99c0 7.8984-6.4062 14.305-14.305 14.305-7.9023 0-14.309-6.4062-14.309-14.305 0-7.9023 6.4062-14.309 14.309-14.309 7.8984 0 14.305 6.4062 14.305 14.309"/>
  <path d="m326.39 960.91c0 7.9023-6.4062 14.309-14.309 14.309-7.8984 0-14.305-6.4062-14.305-14.309 0-7.8984 6.4062-14.305 14.305-14.305 7.9023 0 14.309 6.4062 14.309 14.305"/>
  <path d="m375.37 489.11c0 6.9453-5.6289 12.574-12.574 12.574-6.9453 0-12.574-5.6289-12.574-12.574 0-6.9453 5.6289-12.574 12.574-12.574 6.9453 0 12.574 5.6289 12.574 12.574"/>
  <path d="m410.37 448.83c0 6.9453-5.6328 12.578-12.578 12.578-6.9492 0-12.578-5.6328-12.578-12.578 0-6.9492 5.6289-12.578 12.578-12.578 6.9453 0 12.578 5.6289 12.578 12.578"/>
  <path d="m450.63 483.82c0 6.9453-5.6289 12.574-12.57 12.574-6.9453 0-12.574-5.6289-12.574-12.574 0-6.9414 5.6289-12.574 12.574-12.574 6.9414 0 12.57 5.6328 12.57 12.574"/>
  <path d="m944.2 482.57c-2.3203-2.3516-5.4805-3.668-8.7812-3.668h-247.75c-3.6328 0-6.8789 1.6016-9.1367 4.0977-0.73047 0.47266-1.4375 1.0117-2.0625 1.6406l-197.89 197.88c-4.8242 4.8203-4.8242 12.633-0.003906 17.453l28.293 28.316h-357.5v304.54h487.28v-174.64l39.344 39.391c0.56641 0.57422 1.1992 1.0898 1.8711 1.5391 0.18359 0.11719 0.38672 0.19922 0.57812 0.30469 0.5 0.30078 1.0039 0.59766 1.5391 0.82422 0.29297 0.11719 0.60938 0.1875 0.91016 0.28516 0.46484 0.15234 0.91797 0.32422 1.3984 0.42578 0.79688 0.16406 1.6094 0.24609 2.4414 0.24609h244.11c3.0977 0 6.0742-1.1641 8.3594-3.2656l209.06-192.64c2.4531-2.2734 3.8906-5.4453 3.9805-8.7891 0.078125-3.3477-1.2109-6.582-3.5664-8.9648zm-514.97 525.58h-255.16v-255.16h255.16zm182.73 0h-156.39v-255.16h75.98l80.414 80.492zm-107.18-316.89 180.43-180.42 179.96 180.15-180.43 180.42zm419.23 185.27h-209.47l168-168v0.058594c83.445 0.53516 139.77 0.73047 177.89 0.73047 19.395 0 34.062-0.054688 45.203-0.13281zm-31.273-192.57c-0.41406-0.58594-0.85547-1.1602-1.3789-1.6875l-178.49-178.67h217.39l178.71 180.93c-46.699 0.27734-143.3-0.11719-216.24-0.56641z"/>
  <path d="m730.5 718.17c0 7.9023-6.4062 14.309-14.309 14.309s-14.305-6.4062-14.305-14.309c0-7.8984 6.4023-14.305 14.305-14.305s14.309 6.4062 14.309 14.305"/>
  <path d="m756.7 663.41c0 7.9023-6.4062 14.309-14.309 14.309-7.8984 0-14.305-6.4062-14.305-14.309 0-7.8984 6.4062-14.305 14.305-14.305 7.9023 0 14.309 6.4062 14.309 14.305"/>
  <path d="m811.45 689.61c0 7.9023-6.4062 14.309-14.309 14.309-7.9023 0-14.305-6.4062-14.305-14.309 0-7.9023 6.4023-14.305 14.305-14.305 7.9023 0 14.309 6.4023 14.309 14.305"/>
 </g>
</svg>
