<?xml version="1.0" encoding="UTF-8"?>
<svg width="1200pt" height="1200pt" version="1.1" viewBox="0 0 1200 1200" xmlns="http://www.w3.org/2000/svg">
 <g fill="#6a794b">
  <path d="m799.32 957.48h-398.64c-28.559 0-56.039-11.879-77.281-33.48-22.801-23.039-35.641-55.078-35.16-87.84 0.35938-26.641 8.7617-51.961 24.359-73.078l5.1602-6.8398 148.32-180c20.762-25.199 32.281-58.801 32.281-94.441v-184.92h-10.922c-15 0-27.121-12.238-27.121-27.121 0-15 12.238-27.121 27.121-27.121h225.36c15 0 27.121 12.238 27.121 27.121 0 15-12.121 27.121-27.121 27.121h-10.922v184.92c0 35.641 11.52 69.238 32.281 94.441l153.36 186.72c15.602 21.238 24.121 46.559 24.48 73.32 0.48047 32.762-12.359 64.68-35.16 87.84-21.477 21.48-48.957 33.359-77.516 33.359zm-312-700.44c-7.0781 0-12.719 5.7617-12.719 12.719 0 7.0781 5.7617 12.719 12.719 12.719h25.32v199.32c0 39-12.602 75.719-35.52 103.56l-153 186.36c-13.68 18.602-21.121 41.039-21.48 64.68-0.35938 28.922 10.922 57.121 30.961 77.398 18.48 18.84 42.359 29.16 67.078 29.16h398.64c24.719 0 48.48-10.32 67.078-29.16 20.039-20.398 31.32-48.602 30.961-77.398-0.35938-23.641-7.8008-46.078-21.719-64.922l-4.4414-5.8789-148.32-180.12c-22.922-27.84-35.52-64.559-35.52-103.56v-199.44h25.32c7.0781 0 12.719-5.7617 12.719-12.719 0-7.0781-5.7617-12.719-12.719-12.719z"/>
  <path d="m852.48 788.88-3.9609-5.2812-114.84-139.44c-11.281-2.5195-24.48-4.1992-42-4.1992-75.121 0-75.121 30.84-150.12 30.84-42.238 0-60.719-9.7188-82.078-18.238l-108.12 131.04-3.9609 5.2812c-9.6016 12.961-15.602 29.641-15.84 48-0.60156 42.602 32.52 77.281 69.121 77.281l199.32-0.003906h199.2c36.602 0 69.719-34.801 69.121-77.281-0.12109-18.359-6.2422-35.039-15.84-48z"/>
 </g>
</svg>
