<?xml version="1.0" encoding="UTF-8"?>
<svg width="1200pt" height="1200pt" version="1.1" viewBox="0 0 1200 1200" xmlns="http://www.w3.org/2000/svg">
 <g fill="#6a794b">
  <path d="m804 454.36c0-86.109-57.75-260.72-203.11-340.97-25.969-14.25-58.219-5.1094-63.469 24.141-5.25 28.781-18.891 60-51.469 77.531-80.531 40.219-136.78 132.14-136.78 239.26 0 33.75 5.5312 65.859 15.75 95.391 19.219 56.109 9.6094 117.75-24.281 166.36-31.219 44.719-49.781 101.25-49.781 162.74 0 144.14 101.86 260.86 227.39 260.86s227.39-116.72 227.39-260.86c0-33.609-5.5312-65.859-15.609-95.391-19.359-56.109-9.75-117.61 24.141-166.36 31.219-44.531 49.828-101.06 49.828-162.71zm-292.36 366.42c-9.75 3.8906-19.781 6.6094-30.141 8.1094-3.8906 25.359-4.2188 51.141-0.75 76.359 5.25-2.5312 10.219-5.3906 15-8.7188 2.7188-1.9688 6.6094-1.2188 8.3906 1.5 1.9688 2.8594 1.2188 6.6094-1.6406 8.5312-6.2812 4.2188-12.891 8.1094-19.781 11.25 2.7188 15.469 6.8906 30.609 12.469 45.281 1.2188 3.1406-0.46875 6.75-3.6094 7.9688-0.60938 0.14062-1.3594 0.28125-2.1094 0.28125-2.3906 0-4.7812-1.5-5.7188-3.8906-5.3906-14.391-9.6094-29.391-12.469-44.531-18 7.2188-37.359 11.109-56.859 11.719 3.8906 25.969 10.969 51.469 21 75.75 1.2188 3.1406-0.28125 6.6094-3.2812 7.9688-0.75 0.28125-1.6406 0.46875-2.3906 0.46875-2.3906 0-4.6406-1.3594-5.5312-3.75-10.641-25.969-18-52.969-22.031-80.531-14.859-0.46875-29.531-3-43.5-7.5-3.2812-1.0312-4.9688-4.5-3.8906-7.7812 1.0312-3.1406 4.3594-4.7812 7.6406-3.8906 12.469 4.0312 25.359 6.4688 38.391 7.0312-3.8906-33.891-2.5312-68.391 3.6094-102-10.969-4.2188-21.469-9.75-30.891-16.5-2.7188-1.9688-3.4688-5.8594-1.5-8.5312 1.9688-2.7188 5.8594-3.2812 8.5312-1.3594 8.25 5.8594 17.109 10.641 26.391 14.391 6-28.031 15.75-55.359 28.969-81 1.5-3 5.1094-4.2188 8.1094-2.5312 3 1.5 4.2188 5.1094 2.7188 8.1094-12.891 25.219-22.359 51.891-28.219 79.5 16.969 5.1094 34.969 7.0312 52.5 5.3906 3.75-19.781 9.6094-39.281 17.531-57.891 1.3594-3.1406 4.9688-4.6406 7.9688-3.2812 3.1406 1.3594 4.6406 4.9688 3.2812 8.1094-7.2188 16.641-12.469 33.891-16.031 51.609 8.1094-1.5 15.891-3.75 23.391-6.75 3.1406-1.2188 6.75 0.28125 7.9688 3.4688 1.125 3-0.375 6.4688-3.5156 7.6406zm233.26-359.68c-12 9.2812-27.891 17.859-45.141 25.641-4.7812 35.391-16.219 70.781-33.75 106.03-1.0312 2.1094-3.1406 3.4688-5.3906 3.4688-0.89062 0-1.7812-0.28125-2.7188-0.75-3-1.5-4.2188-5.1094-2.7188-8.1094 15.75-31.5 26.25-63.281 31.5-95.109-16.781 6.8906-34.5 12.891-51 17.719-2.1094 21.75-5.5312 43.359-10.5 64.641-0.60938 2.8594-3.1406 4.6406-6 4.6406-0.46875 0-0.89062 0-1.3594-0.14063-3.2812-0.75-5.25-4.0312-4.5-7.2188 4.3594-19.219 7.6406-38.719 9.75-58.359-10.969 2.8594-21.141 5.1094-29.719 6.75-0.28125 0-0.75 0.14062-1.0312 0.14062-2.8594 0-5.3906-2.1094-6-5.1094-0.60938-3.2812 1.5-6.4688 4.9688-7.0312 9.4688-1.7812 20.719-4.3594 33-7.7812 1.7812-23.109 1.9688-46.359 0.46875-69.469-7.9688 1.0312-16.031 1.5-24 1.5-4.3594 0-8.8594-0.14063-13.359-0.46875-3.2812-0.28125-5.8594-3.1406-5.5312-6.4688 0.14062-3.4688 3.1406-6 6.4688-5.7188 11.859 0.75 23.719 0.46875 35.531-0.89063-2.25-24.75-6.2812-49.359-12.281-73.5-0.75-3.2812 1.2188-6.6094 4.5-7.5 3.2812-0.75 6.6094 1.2188 7.3594 4.5 6.1406 24.469 10.219 49.5 12.469 74.719 17.859-3.1406 35.25-8.7188 51.609-16.359-5.5312-37.219-18.469-74.531-38.391-111.61-1.6406-2.8594-0.60938-6.6094 2.3906-8.25 3-1.5 6.75-0.46875 8.25 2.5312 19.969 37.031 33 74.25 39.141 111.47 8.3906-4.5 16.359-9.6094 23.859-15.281 2.7188-1.9688 6.4688-1.3594 8.5312 1.2188 1.9688 2.7188 1.5 6.6094-1.2188 8.5312-9.2812 6.8906-19.031 13.031-29.391 18.469 2.7188 21.469 3 43.031 0.75 64.5 13.781-6.4688 26.25-13.5 36-21 2.7188-2.1094 6.6094-1.6406 8.5312 1.0312 2.0625 2.7656 1.5 6.6562-1.0781 8.625z"/>
  <path d="m469.22 910.64c-17.719 7.5-36.891 11.531-56.25 11.859-3.75-32.719-2.7188-65.859 3.1406-98.25 13.969 4.2188 28.5 6.2812 43.219 6.2812 3.2812 0 6.4688-0.14062 9.75-0.28125-3.9375 26.531-3.7969 53.859 0.14062 80.391z"/>
  <path d="m688.64 478.36c-16.781 7.2188-34.969 13.641-51.891 18.75 1.5-22.5 1.6406-45.141 0.14062-67.641 18-3.1406 35.531-8.3906 52.219-15.891 2.25 21.562 2.1094 43.172-0.46875 64.781z"/>
 </g>
</svg>
