<?xml version="1.0" encoding="UTF-8"?>
<svg width="1200pt" height="1200pt" version="1.1" viewBox="0 0 1200 1200" xmlns="http://www.w3.org/2000/svg">
 <g fill="#6a794b">
  <path d="m830.39 288c-126 103.22-187.22 140.39-262.78 300-33.609 70.781-79.219 268.78-60 408 19.219-66 43.219-111.61 73.219-163.22 58.781-104.39 148.78-223.22 255.61-322.78-91.219 147.61-238.78 391.22-288 561.61 129.61-42 331.22-177.61 404.39-283.22 135.56-196.78 179.95-452.39 177.56-690 0 0-238.78 139.22-300 189.61z"/>
  <path d="m240 633.61c72 90 153.61 182.39 202.78 271.22-4.7812-76.781 3.6094-134.39 15.609-194.39-15.609-85.219-93.609-166.78-165.61-223.22-57.609-49.219-130.78-84-218.39-135.61-2.3906 85.172 1.2188 124.78 15.609 210 14.391 84 42 193.22 100.78 255.61 44.391 48 81.609 82.781 134.39 121.22 39.609 28.781 75.609 63.609 104.39 103.22 6 9.6094 14.391 18 20.391 27.609-46.734-145.26-141.56-313.26-209.95-435.66z"/>
 </g>
</svg>
